<svg width="160" height="40" viewBox="0 0 160 40" fill="none" xmlns="http://www.w3.org/2000/svg">
<g clip-path="url(#clip0_1_101)">
<path d="M3.49802 7.37142V10.1122H0.323387V13.6863H3.49802V28.0538C3.49802 29.1439 4.63669 30.0173 6.0942 30.0173C7.55171 30.0173 8.71088 29.1439 8.71088 28.0538V13.693H12.9354V10.1189H8.71088V7.37142C8.71088 4.06545 11.3526 3.45563 14.969 4.24415V0.670129C9.88144 -0.446753 3.49802 0.0737142 3.49802 7.37142ZM19.756 13.693H19.649V10.1189H15.4245V28.0628C15.4245 29.1551 16.5632 30.0285 18.0207 30.0285C19.4782 30.0285 20.6351 29.1551 20.6351 28.0628V19.0384C20.6351 14.7763 23.4567 13.693 26.8955 13.693V9.67219C23.7961 9.65209 20.8924 10.6506 19.756 13.693ZM56.2506 9.66103C51.2177 9.66103 47.1412 12.1182 47.1412 16.9141C47.1412 19.4739 48.3004 21.3637 50.145 22.5722C50.0107 22.6593 49.8763 22.7486 49.7488 22.8425C47.4578 24.5022 47.2118 27.3636 49.3115 28.925C48.2822 29.8185 46.8292 31.4179 46.8292 33.6472C46.8292 37.1855 50.1974 39.4706 56.2484 39.4706C62.2993 39.4706 66.9155 36.6896 66.9155 32.4074C66.9155 28.1253 63.882 26.4433 58.3458 26.4433H54.7294C52.1947 26.4433 52.4087 24.7255 53.2468 23.9862C53.2901 23.9482 53.3356 23.9124 53.3857 23.8745C54.3274 24.0709 55.2879 24.1675 56.2506 24.1626C61.2859 24.1626 65.36 21.7055 65.36 16.9141C65.3728 15.9218 65.1734 14.9379 64.7748 14.0258C65.5456 13.8193 66.3397 13.7075 67.1386 13.693V10.1189C64.9023 10.1189 63.4562 10.2664 61.9258 10.9968C60.3658 10.1055 58.3913 9.66103 56.2506 9.66103ZM53.4836 30.024H58.3412C60.3362 30.024 61.6958 30.6316 61.6958 32.4074C61.6958 34.7931 59.6097 35.8921 56.2438 35.8921C51.0355 35.8921 51.3452 31.7194 53.4745 30.024H53.4836ZM56.2506 20.5819C54.0963 20.5819 52.3495 19.7621 52.3495 16.9118C52.3495 14.0615 54.0871 13.2417 56.2506 13.2417C58.4141 13.2417 60.154 14.0593 60.154 16.9118C60.154 19.7643 58.3959 20.5819 56.2506 20.5819ZM36.3671 9.66103C30.7078 9.66103 27.2576 13.0943 27.2576 19.8425C27.2576 26.5907 30.7147 30.024 36.3671 30.024C42.0194 30.024 45.4765 26.5907 45.4765 19.8425C45.4765 13.0943 42.024 9.66103 36.3671 9.66103ZM36.3671 26.4433C34.2127 26.4433 32.466 25.5855 32.466 19.8425C32.466 14.0995 34.2127 13.2462 36.3671 13.2462C38.5214 13.2462 40.2682 14.1017 40.2682 19.8425C40.2682 25.5833 38.5214 26.4433 36.3671 26.4433Z" fill="#010101"/>
<path d="M79.5798 10.664C80.5773 10.664 81.3448 10.8501 81.8822 11.2224C82.1485 11.4102 82.3619 11.6612 82.5025 11.9518C82.6431 12.2424 82.7063 12.5633 82.6861 12.8843C82.6945 13.2412 82.6165 13.5949 82.4584 13.9163C82.3135 14.1987 82.0941 14.4378 81.823 14.6088C81.5148 14.7993 81.1724 14.9305 80.8141 14.9953C80.3716 15.0799 79.9214 15.1203 79.4705 15.1159H78.6825V17.7003H77.6873V10.8338C77.9956 10.7628 78.3095 10.7179 78.6256 10.6997C78.9763 10.6752 79.2929 10.664 79.5798 10.664ZM79.6618 11.5173C79.2382 11.5173 78.9148 11.5173 78.6894 11.5486V14.2827H79.4364C79.745 14.2847 80.0534 14.263 80.3587 14.2179C80.5976 14.1816 80.8286 14.1061 81.0419 13.9945C81.2251 13.8945 81.3758 13.7458 81.4769 13.5656C81.5877 13.3515 81.641 13.1132 81.6317 12.8732C81.6425 12.6397 81.5874 12.4078 81.4723 12.203C81.3668 12.0306 81.2188 11.887 81.0419 11.7853C80.847 11.6744 80.6333 11.5987 80.4111 11.562C80.163 11.5266 79.9124 11.5116 79.6618 11.5173Z" fill="#231F20"/>
<path d="M85.2891 12.3415C85.6182 12.3331 85.9461 12.3831 86.257 12.489C86.4995 12.5736 86.7175 12.7147 86.8924 12.9C87.0552 13.0827 87.1729 13.2998 87.2363 13.5344C87.3072 13.7982 87.3417 14.0702 87.3388 14.343V17.6088L86.9949 17.6646C86.8469 17.6892 86.6829 17.7093 86.4984 17.7294C86.314 17.7495 86.1135 17.7696 85.8972 17.7852C85.6809 17.8009 85.4691 17.8098 85.2573 17.8098C84.9783 17.8125 84.7 17.7825 84.4283 17.7204C84.193 17.6674 83.9703 17.5703 83.7724 17.4345C83.5894 17.2997 83.4444 17.1213 83.3511 16.9163C83.2421 16.6722 83.1893 16.4076 83.1963 16.1412C83.1887 15.882 83.2508 15.6255 83.3762 15.3973C83.4928 15.1922 83.6605 15.0193 83.8635 14.8947C84.0844 14.7611 84.327 14.6659 84.5809 14.6133C84.8636 14.5524 85.1523 14.5224 85.4417 14.5239C85.5406 14.5237 85.6395 14.529 85.7378 14.5396C85.8356 14.5478 85.9329 14.5612 86.0293 14.5798L86.2707 14.6244L86.4142 14.6535V14.3921C86.414 14.2419 86.3972 14.0921 86.3641 13.9454C86.3328 13.7999 86.2699 13.6627 86.1796 13.5433C86.0845 13.4206 85.9591 13.3238 85.8152 13.2619C85.6259 13.1837 85.4215 13.1471 85.2163 13.1546C84.9392 13.1515 84.6624 13.1739 84.3896 13.2216C84.2102 13.2496 84.0341 13.2945 83.8635 13.3557L83.7497 12.5828C83.9484 12.5095 84.1545 12.4571 84.3645 12.4264C84.6697 12.3723 84.979 12.3439 85.2891 12.3415ZM85.3711 17.0324C85.5989 17.0324 85.7947 17.0324 85.9701 17.019C86.1164 17.0118 86.2618 16.9932 86.4051 16.9632V15.3996C86.2986 15.3567 86.1868 15.3282 86.0726 15.3147C85.8877 15.2895 85.7012 15.2776 85.5146 15.2789C85.3623 15.2801 85.2101 15.2905 85.0591 15.3102C84.9067 15.3285 84.7583 15.3707 84.6196 15.4353C84.4902 15.4968 84.3765 15.5861 84.2871 15.6967C84.1909 15.8258 84.1434 15.9837 84.1527 16.1434C84.1413 16.2771 84.1665 16.4115 84.2258 16.5324C84.285 16.6534 84.3762 16.7566 84.4898 16.8314C84.7607 16.9719 85.065 17.039 85.3711 17.0257V17.0324Z" fill="#231F20"/>
<path d="M90.7821 12.3616C90.8641 12.3616 90.9575 12.3616 91.0622 12.3773C91.167 12.3929 91.274 12.4019 91.3765 12.4175C91.479 12.4331 91.5724 12.451 91.6566 12.4689C91.7213 12.4796 91.7852 12.4946 91.8479 12.5135L91.684 13.3266C91.5609 13.2876 91.4354 13.2562 91.3082 13.2328C91.0876 13.1917 90.8631 13.1738 90.6387 13.1792C90.461 13.1788 90.2838 13.1975 90.1103 13.235L89.7664 13.3088V17.7003H88.8168V12.6945C89.0913 12.6011 89.3721 12.5265 89.6571 12.4711C90.0271 12.3955 90.4042 12.3588 90.7821 12.3616Z" fill="#231F20"/>
<path d="M93.5582 12.4733H95.5782V13.2574H93.5582V15.6698C93.5538 15.8874 93.5744 16.1047 93.6197 16.3176C93.6486 16.4639 93.7117 16.6015 93.8042 16.7197C93.8842 16.816 93.991 16.8874 94.1116 16.9252C94.2509 16.9677 94.3962 16.9881 94.542 16.9855C94.7735 16.9921 95.0045 16.9603 95.2253 16.8917L95.5873 16.7555L95.7741 17.5283C95.6111 17.5996 95.4429 17.6586 95.2708 17.7048C95.0043 17.7792 94.728 17.8145 94.4509 17.8098C94.146 17.8187 93.842 17.7733 93.5537 17.6758C93.3304 17.5924 93.1344 17.4511 92.9866 17.267C92.8344 17.0695 92.7308 16.8401 92.6837 16.5969C92.6215 16.294 92.5925 15.9855 92.5972 15.6766V11.0147L93.5491 10.8539L93.5582 12.4733Z" fill="#231F20"/>
<path d="M103.654 15.0868C103.658 15.4668 103.596 15.8446 103.469 16.2037C103.356 16.5227 103.18 16.8164 102.95 17.0682C102.73 17.3089 102.458 17.4995 102.155 17.6266C101.513 17.8857 100.792 17.8857 100.149 17.6266C99.8456 17.4995 99.5744 17.3089 99.3541 17.0682C99.1255 16.8195 98.9498 16.5287 98.8371 16.2127C98.5908 15.4831 98.5908 14.6951 98.8371 13.9655C98.9481 13.6447 99.124 13.3492 99.3541 13.0966C99.5744 12.8558 99.8456 12.6653 100.149 12.5381C100.467 12.4084 100.808 12.3416 101.152 12.3416C101.496 12.3416 101.837 12.4084 102.155 12.5381C102.458 12.6653 102.73 12.8558 102.95 13.0966C103.18 13.3496 103.357 13.645 103.469 13.9655C103.596 14.3261 103.658 14.7054 103.654 15.0868ZM102.659 15.0868C102.686 14.588 102.544 14.0944 102.253 13.684C102.121 13.5224 101.953 13.3919 101.763 13.3022C101.572 13.2126 101.363 13.166 101.152 13.166C100.941 13.166 100.732 13.2126 100.541 13.3022C100.351 13.3919 100.183 13.5224 100.051 13.684C99.7605 14.0944 99.6178 14.588 99.6456 15.0868C99.6178 15.5857 99.7605 16.0793 100.051 16.4896C100.184 16.6506 100.352 16.7804 100.542 16.8695C100.733 16.9587 100.941 17.005 101.152 17.005C101.363 17.005 101.572 16.9587 101.762 16.8695C101.953 16.7804 102.12 16.6506 102.253 16.4896C102.544 16.0793 102.686 15.5857 102.659 15.0868Z" fill="#231F20"/>
<path d="M106.974 9.90004C107.216 9.89689 107.458 9.91709 107.696 9.96035C107.841 9.98554 107.983 10.0221 108.122 10.0698L107.947 10.874C107.835 10.8238 107.718 10.7856 107.598 10.76C107.417 10.7191 107.231 10.7004 107.045 10.7042C106.589 10.7042 106.289 10.8226 106.111 11.0616C105.92 11.3447 105.826 11.6807 105.845 12.0199V12.4666H107.894V13.2507H105.845V17.7003H104.893V11.9998C104.893 11.3296 105.059 10.8136 105.394 10.4473C105.728 10.081 106.254 9.90004 106.974 9.90004Z" fill="#231F20"/>
<path d="M80.821 30.1357C80.3316 30.1432 79.8451 30.0614 79.3862 29.8945C78.9761 29.7435 78.6073 29.5011 78.3091 29.1864C78.0018 28.8573 77.769 28.4684 77.6258 28.0449C77.4635 27.5447 77.3865 27.0217 77.3981 26.4969C77.3887 25.9688 77.4806 25.4437 77.6691 24.9489C77.8351 24.5236 78.0877 24.136 78.4115 23.8097C78.7243 23.4979 79.1018 23.2556 79.5183 23.0993C79.9545 22.9362 80.4179 22.8544 80.8847 22.8581C81.1527 22.8559 81.4204 22.8783 81.6841 22.9251C81.8948 22.9614 82.1032 23.0098 82.3081 23.0703C82.4603 23.1135 82.6082 23.1704 82.7499 23.2401L82.9958 23.3719L82.6155 24.4061C82.3948 24.2824 82.1592 24.1863 81.9141 24.1202C81.5932 24.0275 81.2602 23.9816 80.9257 23.9839C80.6313 23.9823 80.3392 24.0353 80.0649 24.1403C79.8045 24.244 79.5711 24.4035 79.3817 24.6071C79.1761 24.8347 79.021 25.1017 78.9262 25.3912C78.8109 25.7455 78.7555 26.116 78.7622 26.488C78.7582 26.8301 78.801 27.1712 78.8898 27.5021C78.9652 27.7918 79.0992 28.0638 79.2838 28.3018C79.464 28.5287 79.6987 28.7083 79.967 28.8245C80.2771 28.9561 80.613 29.0194 80.9508 29.0099C81.3282 29.0202 81.7051 28.975 82.069 28.8759C82.2972 28.8075 82.5195 28.7216 82.734 28.619L83.0824 29.6532C82.9777 29.7183 82.8663 29.7722 82.7499 29.814C82.3833 29.9516 82.0009 30.0446 81.6112 30.091C81.3491 30.1235 81.0851 30.1384 80.821 30.1357Z" fill="#231F20"/>
<path d="M85.9245 24.5982C86.2754 24.589 86.6253 24.6396 86.9584 24.7479C87.2181 24.8314 87.4528 24.9764 87.6417 25.17C87.8125 25.3587 87.9351 25.5846 87.9992 25.829C88.0745 26.1058 88.1113 26.3914 88.1085 26.6778V29.8654C87.9172 29.9056 87.628 29.9548 87.2408 30.0106C86.8087 30.0711 86.3725 30.0995 85.9359 30.0955C85.6396 30.0984 85.344 30.0685 85.0546 30.0061C84.8089 29.9553 84.5764 29.8557 84.3714 29.7135C84.1814 29.5788 84.0293 29.3989 83.9296 29.1908C83.8154 28.9419 83.7609 28.6706 83.7702 28.3978C83.7622 28.1322 83.8242 27.8691 83.9501 27.6339C84.0672 27.4279 84.2347 27.2537 84.4374 27.1268C84.6548 26.9898 84.8967 26.8943 85.1502 26.8454C85.4278 26.7864 85.7111 26.7572 85.9951 26.7583C86.139 26.7587 86.2828 26.7677 86.4255 26.7851C86.5874 26.8032 86.7479 26.8315 86.9061 26.8699V26.6689C86.9072 26.5333 86.8904 26.3982 86.856 26.2668C86.8225 26.1426 86.761 26.0273 86.6761 25.9295C86.583 25.8292 86.4666 25.7526 86.3367 25.7061C86.1679 25.6477 85.9896 25.6204 85.8107 25.6257C85.546 25.624 85.2816 25.6441 85.0204 25.686C84.8223 25.7163 84.6272 25.7633 84.4374 25.8268L84.2826 24.8417C84.5061 24.7721 84.7344 24.7184 84.9658 24.6809C85.2822 24.6253 85.6031 24.5976 85.9245 24.5982ZM86.027 29.1305C86.3183 29.1375 86.6096 29.1173 86.897 29.0702V27.7299C86.7997 27.7037 86.7008 27.6836 86.6009 27.6696C86.4584 27.649 86.3145 27.6393 86.1705 27.6406C86.0318 27.6403 85.8933 27.65 85.756 27.6696C85.6241 27.6872 85.4958 27.7249 85.3757 27.7813C85.2674 27.8318 85.1741 27.9087 85.1047 28.0047C85.033 28.1136 84.9973 28.2415 85.0022 28.371C84.9891 28.4859 85.0077 28.6021 85.0562 28.7074C85.1047 28.8128 85.1812 28.9034 85.2778 28.9697C85.5078 29.0896 85.767 29.1453 86.027 29.1305Z" fill="#231F20"/>
<path d="M94.4396 27.3614C94.4451 27.7395 94.3914 28.1162 94.2801 28.4782C94.1861 28.7923 94.0315 29.0858 93.8247 29.3427C93.6254 29.5846 93.3711 29.7774 93.0823 29.9056C92.7648 30.0437 92.4206 30.1123 92.0734 30.1067C91.838 30.1091 91.6034 30.0791 91.3765 30.0173C91.1951 29.969 91.0195 29.9015 90.8527 29.8163V31.8557H89.6138V24.8998C89.8666 24.8327 90.1764 24.768 90.5453 24.7077C90.9315 24.6464 91.3223 24.6165 91.7136 24.6183C92.1018 24.6118 92.488 24.6762 92.8522 24.8082C93.1746 24.9275 93.4662 25.1152 93.7062 25.3577C93.9486 25.6043 94.1342 25.8991 94.2505 26.2221C94.381 26.5881 94.445 26.9737 94.4396 27.3614ZM93.1688 27.3815C93.1967 26.9297 93.0647 26.4823 92.7953 26.1149C92.5448 25.8171 92.1432 25.6682 91.5906 25.6682C91.4744 25.6682 91.3629 25.6682 91.2262 25.6838C91.0998 25.6932 90.9747 25.7149 90.8527 25.7486V28.7485C90.9885 28.8349 91.1346 28.9047 91.2877 28.9563C91.4745 29.0196 91.6708 29.0513 91.8684 29.0501C92.0584 29.0652 92.2492 29.0321 92.4223 28.9538C92.5954 28.8755 92.7451 28.7548 92.8568 28.6033C93.0829 28.2358 93.1916 27.8102 93.1688 27.3815Z" fill="#231F20"/>
<path d="M100.149 29.4522C100.149 30.2898 99.9211 30.9041 99.4975 31.2928C99.074 31.6815 98.3999 31.8758 97.5049 31.8758C97.1835 31.8764 96.8627 31.8495 96.5461 31.7954C96.2587 31.7439 95.9761 31.6692 95.7012 31.572L95.9289 30.5378C96.1619 30.631 96.4037 30.7013 96.6508 30.7477C96.9396 30.8032 97.2334 30.8301 97.5276 30.8282C98.0256 30.8282 98.3809 30.7276 98.5934 30.5266C98.7059 30.4069 98.792 30.2659 98.8464 30.1121C98.9009 29.9584 98.9225 29.7954 98.91 29.6331V29.4321C98.7528 29.5053 98.5898 29.5658 98.4226 29.613C98.2006 29.6755 97.9704 29.7056 97.7394 29.7024C97.4192 29.7062 97.1011 29.6517 96.8012 29.5415C96.5253 29.4399 96.2763 29.2788 96.0724 29.0702C95.8614 28.8455 95.7008 28.5799 95.601 28.2906C95.483 27.9421 95.4261 27.5766 95.4325 27.2095C95.4282 26.8503 95.4891 26.4933 95.6124 26.1551C95.7232 25.8465 95.9012 25.5653 96.1339 25.3309C96.3714 25.0976 96.6561 24.9157 96.9697 24.797C97.3268 24.665 97.7063 24.6006 98.0879 24.6071C98.4693 24.6058 98.8502 24.6357 99.2265 24.6965C99.5886 24.7568 99.8961 24.8216 100.149 24.8886V29.4522ZM96.6941 27.2184C96.6941 27.7351 96.8087 28.1127 97.038 28.3509C97.1516 28.4683 97.2893 28.5607 97.442 28.622C97.5947 28.6832 97.759 28.7119 97.9239 28.7061C98.113 28.7075 98.3012 28.6803 98.4818 28.6257C98.6325 28.5833 98.776 28.5193 98.9077 28.4358V25.7106C98.7994 25.6873 98.6899 25.6694 98.5798 25.657C98.4166 25.6372 98.2523 25.6282 98.0879 25.6302C97.8919 25.62 97.6962 25.6551 97.5166 25.7327C97.337 25.8103 97.1786 25.9282 97.0539 26.077C96.8035 26.4063 96.6765 26.8102 96.6941 27.2206V27.2184Z" fill="#231F20"/>
<path d="M101.429 27.3815C101.421 26.9671 101.492 26.555 101.638 26.1663C101.763 25.8425 101.954 25.5469 102.198 25.2974C102.424 25.0694 102.697 24.8912 102.998 24.7747C103.291 24.6581 103.604 24.5982 103.92 24.5982C104.24 24.5802 104.561 24.6308 104.859 24.7465C105.157 24.8623 105.426 25.0403 105.646 25.2683C106.059 25.7151 106.266 26.3852 106.266 27.2787C106.266 27.3457 106.266 27.4217 106.266 27.5021C106.266 27.5825 106.266 27.6607 106.25 27.7255H102.709C102.714 27.9105 102.757 28.0926 102.835 28.261C102.913 28.4294 103.025 28.5808 103.164 28.7061C103.499 28.9575 103.916 29.0806 104.337 29.0523C104.614 29.0547 104.89 29.0278 105.161 28.9719C105.363 28.9324 105.56 28.8748 105.751 28.7999L105.915 29.7962C105.824 29.8388 105.73 29.8739 105.633 29.9012C105.498 29.9431 105.361 29.9766 105.223 30.0017C105.07 30.0329 104.904 30.0575 104.726 30.0776C104.546 30.0975 104.365 30.1072 104.184 30.1067C103.765 30.1164 103.347 30.0466 102.955 29.9012C102.627 29.7782 102.332 29.5825 102.094 29.3293C101.865 29.0794 101.694 28.7847 101.59 28.4648C101.48 28.1141 101.425 27.7486 101.429 27.3815ZM105.027 26.8387C105.028 26.6774 105.003 26.5169 104.954 26.3629C104.91 26.22 104.839 26.0866 104.745 25.9697C104.652 25.86 104.536 25.771 104.405 25.7084C104.251 25.6415 104.085 25.6069 103.917 25.6069C103.748 25.6069 103.582 25.6415 103.428 25.7084C103.289 25.7741 103.165 25.8677 103.064 25.9831C102.964 26.0995 102.887 26.2327 102.836 26.3763C102.782 26.5207 102.744 26.6705 102.722 26.823L105.027 26.8387Z" fill="#231F20"/>
<path d="M110.632 27.2206C110.659 26.8131 110.587 26.405 110.422 26.03C110.339 25.9034 110.222 25.8019 110.084 25.7372C109.945 25.6725 109.791 25.647 109.639 25.6637C109.486 25.664 109.334 25.6737 109.183 25.6927C109.019 25.7128 108.896 25.7307 108.814 25.7441V29.9883H107.573V24.8998C107.882 24.8178 108.195 24.7537 108.511 24.7077C108.917 24.6463 109.326 24.6164 109.737 24.6183C110.047 24.608 110.356 24.6557 110.647 24.759C110.867 24.8427 111.068 24.9688 111.237 25.1298C111.329 25.0668 111.425 25.0101 111.524 24.9601C111.65 24.8954 111.78 24.8402 111.914 24.7948C112.062 24.7418 112.214 24.6992 112.369 24.6674C112.529 24.6343 112.693 24.6178 112.857 24.6183C113.208 24.6064 113.559 24.6665 113.886 24.7948C114.139 24.8995 114.358 25.0693 114.521 25.2862C114.682 25.5154 114.79 25.7761 114.838 26.0501C114.899 26.3735 114.929 26.7019 114.927 27.0308V29.986H113.685V27.2206C113.713 26.8135 113.642 26.4058 113.481 26.03C113.344 25.7866 113.082 25.6637 112.693 25.6637C112.5 25.6623 112.309 25.6949 112.128 25.7598C111.988 25.8051 111.854 25.8673 111.729 25.9452C111.785 26.1182 111.822 26.2963 111.841 26.4768C111.862 26.6771 111.873 26.8785 111.873 27.0799V29.9838H110.632V27.2206Z" fill="#231F20"/>
<path d="M117.826 23.1909C117.83 23.2922 117.812 23.3932 117.773 23.487C117.734 23.5807 117.674 23.6649 117.598 23.7337C117.453 23.8657 117.262 23.9377 117.065 23.9348C116.865 23.9389 116.671 23.8668 116.523 23.7337C116.447 23.6649 116.387 23.5807 116.348 23.487C116.309 23.3932 116.291 23.2922 116.295 23.1909C116.29 23.0879 116.308 22.9851 116.347 22.8894C116.386 22.7938 116.446 22.7076 116.523 22.637C116.671 22.5039 116.865 22.4318 117.065 22.4359C117.262 22.433 117.453 22.505 117.598 22.637C117.675 22.7076 117.735 22.7938 117.774 22.8894C117.813 22.9851 117.831 23.0879 117.826 23.1909ZM117.694 29.986H116.452V24.7278H117.694V29.986Z" fill="#231F20"/>
<path d="M119.272 24.8998C119.578 24.818 119.889 24.7538 120.203 24.7077C120.624 24.645 121.049 24.6151 121.474 24.6183C121.848 24.6072 122.221 24.6672 122.572 24.7948C122.844 24.8979 123.085 25.0669 123.273 25.2862C123.452 25.5109 123.578 25.7718 123.642 26.0501C123.716 26.372 123.752 26.701 123.749 27.0308V29.986H122.508V27.2206C122.511 26.9805 122.493 26.7406 122.453 26.5036C122.425 26.3323 122.363 26.1682 122.269 26.0211C122.184 25.8977 122.062 25.8027 121.92 25.7486C121.748 25.6884 121.566 25.6597 121.383 25.6637C121.219 25.6637 121.054 25.6734 120.891 25.6927C120.72 25.7128 120.593 25.7307 120.511 25.7441V29.9883H119.272V24.8998Z" fill="#231F20"/>
<path d="M126.648 23.1909C126.653 23.2922 126.635 23.3932 126.595 23.487C126.556 23.5807 126.496 23.6649 126.42 23.7337C126.276 23.8657 126.085 23.9377 125.888 23.9348C125.687 23.9389 125.493 23.8668 125.346 23.7337C125.27 23.6649 125.21 23.5807 125.171 23.487C125.131 23.3932 125.113 23.2922 125.118 23.1909C125.113 23.0879 125.13 22.9851 125.17 22.8894C125.209 22.7938 125.269 22.7076 125.346 22.637C125.493 22.5039 125.687 22.4318 125.888 22.4359C126.085 22.433 126.276 22.505 126.42 22.637C126.497 22.7076 126.557 22.7938 126.596 22.8894C126.636 22.9851 126.653 23.0879 126.648 23.1909ZM126.516 29.986H125.275V24.7278H126.516V29.986Z" fill="#231F20"/>
<path d="M130.542 23.0189H131.834V29.986H130.542V23.0189Z" fill="#231F20"/>
<path d="M133.473 24.8998C133.781 24.8182 134.092 24.7541 134.407 24.7077C134.828 24.645 135.253 24.6151 135.678 24.6183C136.051 24.6072 136.423 24.6671 136.773 24.7948C137.046 24.8967 137.288 25.066 137.475 25.2862C137.656 25.5098 137.782 25.7712 137.844 26.0502C137.919 26.3717 137.956 26.7008 137.953 27.0308V29.986H136.712V27.2206C136.715 26.9805 136.697 26.7406 136.657 26.5036C136.629 26.3323 136.566 26.1682 136.473 26.0211C136.387 25.8977 136.266 25.8027 136.124 25.7486C135.951 25.6882 135.768 25.6595 135.584 25.6637C135.42 25.6638 135.256 25.6735 135.093 25.6927C134.922 25.7129 134.797 25.7307 134.715 25.7441V29.9883H133.473V24.8998Z" fill="#231F20"/>
<path d="M140.706 29.986C140.365 29.2966 140.013 28.5043 139.652 27.6093C139.291 26.7143 138.963 25.7538 138.668 24.7278H139.991C140.066 25.0226 140.155 25.3398 140.253 25.6793C140.351 26.0189 140.46 26.3495 140.572 26.6935C140.684 27.0375 140.8 27.3636 140.923 27.6786C141.046 27.9935 141.15 28.2839 141.257 28.5386C141.36 28.2839 141.469 27.998 141.588 27.6786C141.706 27.3591 141.815 27.033 141.931 26.6935C142.048 26.3539 142.159 26.0233 142.255 25.6793C142.351 25.3353 142.446 25.0226 142.524 24.7278H143.803C143.526 25.7039 143.199 26.6657 142.822 27.6093C142.462 28.5028 142.111 29.2951 141.768 29.986H140.706Z" fill="#231F20"/>
<path d="M144.295 27.3815C144.287 26.9671 144.358 26.555 144.505 26.1663C144.63 25.8425 144.82 25.5469 145.065 25.2974C145.291 25.0694 145.563 24.8912 145.864 24.7747C146.154 24.6595 146.463 24.5996 146.775 24.5982C147.096 24.5802 147.416 24.6308 147.714 24.7465C148.012 24.8623 148.281 25.0403 148.502 25.2683C148.915 25.7151 149.121 26.3852 149.121 27.2787C149.121 27.3457 149.121 27.4217 149.121 27.5021C149.121 27.5825 149.121 27.6607 149.105 27.7255H145.578C145.583 27.9105 145.626 28.0926 145.704 28.261C145.782 28.4294 145.894 28.5808 146.033 28.7061C146.368 28.9575 146.785 29.0806 147.206 29.0523C147.483 29.0547 147.759 29.0278 148.03 28.9719C148.232 28.9324 148.429 28.8748 148.62 28.7999L148.784 29.7962C148.693 29.8388 148.599 29.8739 148.502 29.9012C148.367 29.9431 148.23 29.9766 148.092 30.0017C147.939 30.0329 147.773 30.0575 147.595 30.0776C147.415 30.0975 147.234 30.1072 147.053 30.1067C146.634 30.1164 146.216 30.0466 145.823 29.9012C145.495 29.7782 145.201 29.5825 144.963 29.3293C144.734 29.0794 144.563 28.7847 144.459 28.4648C144.348 28.1142 144.292 27.7487 144.295 27.3815ZM147.894 26.8387C147.894 26.6774 147.87 26.5169 147.821 26.3629C147.777 26.22 147.706 26.0866 147.611 25.9697C147.518 25.86 147.403 25.771 147.272 25.7084C147.118 25.6415 146.952 25.6069 146.783 25.6069C146.615 25.6069 146.449 25.6415 146.295 25.7084C146.155 25.7741 146.031 25.8677 145.931 25.9831C145.831 26.0995 145.754 26.2327 145.703 26.3763C145.648 26.5207 145.61 26.6705 145.589 26.823L147.894 26.8387Z" fill="#231F20"/>
<path d="M150.444 24.8998C150.751 24.8182 151.063 24.7541 151.378 24.7077C151.798 24.645 152.223 24.6151 152.649 24.6183C153.022 24.6072 153.394 24.6671 153.744 24.7948C154.017 24.8967 154.259 25.066 154.446 25.2862C154.626 25.5098 154.753 25.7712 154.814 26.0502C154.89 26.3717 154.927 26.7008 154.924 27.0308V29.986H153.683V27.2206C153.686 26.9804 153.667 26.7404 153.626 26.5036C153.6 26.3318 153.537 26.1673 153.441 26.0211C153.357 25.8968 153.235 25.8015 153.093 25.7486C152.92 25.6881 152.738 25.6593 152.555 25.6637C152.391 25.6638 152.227 25.6735 152.063 25.6927C151.893 25.7129 151.767 25.7307 151.685 25.7441V29.9883H150.444V24.8998Z" fill="#231F20"/>
<path d="M156.379 23.3406L157.618 23.1396V24.7278H159.524V25.7441H157.618V27.8841C157.594 28.1953 157.665 28.5065 157.823 28.7776C157.908 28.8747 158.016 28.9502 158.137 28.9977C158.259 29.0451 158.39 29.0631 158.52 29.0501C158.722 29.0526 158.923 29.0286 159.119 28.9786C159.26 28.9428 159.399 28.8996 159.535 28.8491L159.74 29.814C159.557 29.888 159.368 29.95 159.176 29.9994C158.908 30.0682 158.632 30.1005 158.356 30.0955C158.029 30.1044 157.704 30.0528 157.397 29.9436C157.158 29.8547 156.948 29.7042 156.789 29.508C156.632 29.3024 156.523 29.0651 156.47 28.8133C156.405 28.5077 156.375 28.1961 156.379 27.8841V23.3406Z" fill="#231F20"/>
</g>
<defs>
<clipPath id="clip0_1_101">
<rect width="160" height="40" fill="white"/>
</clipPath>
</defs>
</svg>
